<?xml version="1.0" encoding="utf-8"?>
<!-- Generator: Adobe Illustrator 28.0.0, SVG Export Plug-In . SVG Version: 6.00 Build 0)  -->
<svg version="1.1" id="レイヤー_1" xmlns="http://www.w3.org/2000/svg" xmlns:xlink="http://www.w3.org/1999/xlink" x="0px"
	 y="0px" viewBox="0 0 60 60" style="enable-background:new 0 0 60 60;" xml:space="preserve">
<g>
	<path d="M37.2,24.9H22.8c-0.4,0-0.8-0.3-0.8-0.7v0c0-0.4,0.3-0.8,0.8-0.8h14.5c0.4,0,0.8,0.3,0.8,0.8v0
		C38,24.6,37.7,24.9,37.2,24.9z"/>
</g>
<g>
	<path d="M37.2,30.8H22.8c-0.4,0-0.8-0.3-0.8-0.8l0,0c0-0.4,0.3-0.8,0.8-0.8h14.5c0.4,0,0.8,0.3,0.8,0.8l0,0
		C38,30.4,37.7,30.8,37.2,30.8z"/>
</g>
<g>
	<path d="M37.2,36.6H22.8c-0.4,0-0.8-0.3-0.8-0.8l0,0c0-0.4,0.3-0.8,0.8-0.8h14.5c0.4,0,0.8,0.3,0.8,0.8l0,0
		C38,36.2,37.7,36.6,37.2,36.6z"/>
</g>
</svg>
